HIERARCHY
ROOT Hips
{
	OFFSET 0.000000 100.481300 0.000000
	CHANNELS 6 Xposition Yposition Zposition Xrotation Yrotation Zrotation 
	JOINT Spine
	{
		OFFSET -0.279200 12.230698 -2.892100
		CHANNELS 3 Xrotation Yrotation Zrotation
		JOINT Spine1
		{
			OFFSET -0.232667 10.192268 -1.242267
			CHANNELS 3 Xrotation Yrotation Zrotation
			JOINT Spine1_split
			{
				OFFSET -0.232667 10.192268 -1.242267
				CHANNELS 3 Xrotation Yrotation Zrotation
				JOINT Spine2
				{
					OFFSET -0.232667 10.192268 -1.242267
					CHANNELS 3 Xrotation Yrotation Zrotation
					JOINT Neck
					{
						OFFSET -0.418800 17.814194 8.416900
						CHANNELS 3 Xrotation Yrotation Zrotation
						JOINT Head
						{
							OFFSET 0.000000 7.031097 3.806800
							CHANNELS 3 Xrotation Yrotation Zrotation
							JOINT HeadTop_End
							{
								OFFSET 0.000000 24.646606 12.978600
								CHANNELS 3 Xrotation Yrotation Zrotation
								End Site
								{
									OFFSET 0.000000 0.000000 0.000000
								}
							}
						}
					}
					JOINT LeftShoulder
					{
						OFFSET 8.476499 7.247704 -3.868750
						CHANNELS 3 Xrotation Yrotation Zrotation
						JOINT LeftShoulder_split
						{
							OFFSET 8.476499 7.247704 -3.868750
							CHANNELS 3 Xrotation Yrotation Zrotation
							JOINT LeftArm
							{
								OFFSET 9.308998 -2.777710 0.208600
								CHANNELS 3 Xrotation Yrotation Zrotation
								JOINT LeftForeArm
								{
									OFFSET 29.972298 0.000000 0.000000
									CHANNELS 3 Xrotation Yrotation Zrotation
									JOINT LeftHand
									{
										OFFSET 26.026505 0.000000 0.000000
										CHANNELS 3 Xrotation Yrotation Zrotation
										JOINT LeftHandThumb1
										{
											OFFSET 12.240501 -7.147949 9.207150
											CHANNELS 3 Xrotation Yrotation Zrotation
											JOINT LeftHandThumb2
											{
												OFFSET 4.138618 -2.389435 2.389433
												CHANNELS 3 Xrotation Yrotation Zrotation
												JOINT LeftHandThumb3
												{
													OFFSET 2.726913 -1.574387 1.574386
													CHANNELS 3 Xrotation Yrotation Zrotation
													JOINT LeftHandThumb4
													{
														OFFSET 3.941010 -2.275345 2.275342
														CHANNELS 3 Xrotation Yrotation Zrotation
														End Site
														{
															OFFSET 0.000000 0.000000 0.000000
														}
													}
												}
											}
										}
										JOINT LeftHandIndex1
										{
											OFFSET 24.424698 -1.985611 5.953459
											CHANNELS 3 Xrotation Yrotation Zrotation
											JOINT LeftHandIndex2
											{
												OFFSET 6.426697 0.000000 0.000000
												CHANNELS 3 Xrotation Yrotation Zrotation
												JOINT LeftHandIndex3
												{
													OFFSET 5.337898 0.000000 0.000000
													CHANNELS 3 Xrotation Yrotation Zrotation
													JOINT LeftHandIndex4
													{
														OFFSET 4.409401 0.000000 0.000000
														CHANNELS 3 Xrotation Yrotation Zrotation
														End Site
														{
															OFFSET 0.000000 0.000000 0.000000
														}
													}
												}
											}
										}
										JOINT LeftHandMiddle1
										{
											OFFSET 23.810104 0.000000 0.000000
											CHANNELS 3 Xrotation Yrotation Zrotation
											JOINT LeftHandMiddle2
											{
												OFFSET 7.176498 0.000000 0.000000
												CHANNELS 3 Xrotation Yrotation Zrotation
												JOINT LeftHandMiddle3
												{
													OFFSET 6.774902 0.000000 0.000000
													CHANNELS 3 Xrotation Yrotation Zrotation
													JOINT LeftHandMiddle4
													{
														OFFSET 5.403328 0.000000 0.000000
														CHANNELS 3 Xrotation Yrotation Zrotation
														End Site
														{
															OFFSET 0.000000 0.000000 0.000000
														}
													}
												}
											}
										}
										JOINT LeftHandRing1
										{
											OFFSET 22.908401 -0.839279 -6.020567
											CHANNELS 3 Xrotation Yrotation Zrotation
											JOINT LeftHandRing2
											{
												OFFSET 6.337502 0.000000 0.000000
												CHANNELS 3 Xrotation Yrotation Zrotation
												JOINT LeftHandRing3
												{
													OFFSET 5.779297 0.000000 0.000000
													CHANNELS 3 Xrotation Yrotation Zrotation
													JOINT LeftHandRing4
													{
														OFFSET 4.965698 0.000000 0.000000
														CHANNELS 3 Xrotation Yrotation Zrotation
														End Site
														{
															OFFSET 0.000000 0.000000 0.000000
														}
													}
												}
											}
										}
										JOINT LeftHandPinky1
										{
											OFFSET 20.037003 -1.530319 -10.950146
											CHANNELS 3 Xrotation Yrotation Zrotation
											JOINT LeftHandPinky2
											{
												OFFSET 5.254700 0.000000 0.000000
												CHANNELS 3 Xrotation Yrotation Zrotation
												JOINT LeftHandPinky3
												{
													OFFSET 4.810204 0.000000 0.000000
													CHANNELS 3 Xrotation Yrotation Zrotation
													JOINT LeftHandPinky4
													{
														OFFSET 3.647202 0.000000 0.000000
														CHANNELS 3 Xrotation Yrotation Zrotation
														End Site
														{
															OFFSET 0.000000 0.000000 0.000000
														}
													}
												}
											}
										}
									}
								}
							}
						}
					}
					JOINT RightShoulder
					{
						OFFSET -7.570500 7.247704 -3.868750
						CHANNELS 3 Xrotation Yrotation Zrotation
						JOINT RightShoulder_split
						{
							OFFSET -7.570500 7.247704 -3.868750
							CHANNELS 3 Xrotation Yrotation Zrotation
							JOINT RightArm
							{
								OFFSET -9.308998 -2.777710 0.208500
								CHANNELS 3 Xrotation Yrotation Zrotation
								JOINT RightForeArm
								{
									OFFSET -29.972300 0.000000 0.000000
									CHANNELS 3 Xrotation Yrotation Zrotation
									JOINT RightHand
									{
										OFFSET -26.026505 0.000000 0.000000
										CHANNELS 3 Xrotation Yrotation Zrotation
										JOINT RightHandThumb1
										{
											OFFSET -12.240601 -7.148026 9.207092
											CHANNELS 3 Xrotation Yrotation Zrotation
											JOINT RightHandThumb2
											{
												OFFSET -4.138618 -2.389435 2.389433
												CHANNELS 3 Xrotation Yrotation Zrotation
												JOINT RightHandThumb3
												{
													OFFSET -2.726974 -1.574417 1.574421
													CHANNELS 3 Xrotation Yrotation Zrotation
													JOINT RightHandThumb4
													{
														OFFSET -3.941010 -2.275345 2.275343
														CHANNELS 3 Xrotation Yrotation Zrotation
														End Site
														{
															OFFSET 0.000000 0.000000 0.000000
														}
													}
												}
											}
										}
										JOINT RightHandIndex1
										{
											OFFSET -24.424698 -1.985657 5.953444
											CHANNELS 3 Xrotation Yrotation Zrotation
											JOINT RightHandIndex2
											{
												OFFSET -6.426697 0.000000 0.000000
												CHANNELS 3 Xrotation Yrotation Zrotation
												JOINT RightHandIndex3
												{
													OFFSET -5.337898 0.000000 0.000000
													CHANNELS 3 Xrotation Yrotation Zrotation
													JOINT RightHandIndex4
													{
														OFFSET -4.409401 0.000000 0.000000
														CHANNELS 3 Xrotation Yrotation Zrotation
														End Site
														{
															OFFSET 0.000000 0.000000 0.000000
														}
													}
												}
											}
										}
										JOINT RightHandMiddle1
										{
											OFFSET -23.810097 0.000000 0.000000
											CHANNELS 3 Xrotation Yrotation Zrotation
											JOINT RightHandMiddle2
											{
												OFFSET -7.176498 0.000000 0.000000
												CHANNELS 3 Xrotation Yrotation Zrotation
												JOINT RightHandMiddle3
												{
													OFFSET -6.774902 0.000000 0.000000
													CHANNELS 3 Xrotation Yrotation Zrotation
													JOINT RightHandMiddle4
													{
														OFFSET -5.403328 0.000000 0.000000
														CHANNELS 3 Xrotation Yrotation Zrotation
														End Site
														{
															OFFSET 0.000000 0.000000 0.000000
														}
													}
												}
											}
										}
										JOINT RightHandRing1
										{
											OFFSET -22.908302 -0.839325 -6.020576
											CHANNELS 3 Xrotation Yrotation Zrotation
											JOINT RightHandRing2
											{
												OFFSET -6.337502 0.000000 0.000000
												CHANNELS 3 Xrotation Yrotation Zrotation
												JOINT RightHandRing3
												{
													OFFSET -5.779297 0.000000 0.000000
													CHANNELS 3 Xrotation Yrotation Zrotation
													JOINT RightHandRing4
													{
														OFFSET -4.965698 0.000000 0.000000
														CHANNELS 3 Xrotation Yrotation Zrotation
														End Site
														{
															OFFSET 0.000000 0.000000 0.000000
														}
													}
												}
											}
										}
										JOINT RightHandPinky1
										{
											OFFSET -20.037003 -1.530334 -10.950259
											CHANNELS 3 Xrotation Yrotation Zrotation
											JOINT RightHandPinky2
											{
												OFFSET -5.254700 0.000000 0.000000
												CHANNELS 3 Xrotation Yrotation Zrotation
												JOINT RightHandPinky3
												{
													OFFSET -4.810204 0.000000 0.000000
													CHANNELS 3 Xrotation Yrotation Zrotation
													JOINT RightHandPinky4
													{
														OFFSET -3.647202 0.000000 0.000000
														CHANNELS 3 Xrotation Yrotation Zrotation
														End Site
														{
															OFFSET 0.000000 0.000000 0.000000
														}
													}
												}
											}
										}
									}
								}
							}
						}
					}
				}
			}
		}
	}
	JOINT LeftUpLeg
	{
		OFFSET 15.427100 -6.655098 0.678600
		CHANNELS 3 Xrotation Yrotation Zrotation
		JOINT LeftLeg
		{
			OFFSET 4.081073 -39.591068 13.024000
			CHANNELS 3 Xrotation Yrotation Zrotation
			JOINT LeftFoot
			{
				OFFSET -4.081074 -37.707932 -15.979700
				CHANNELS 3 Xrotation Yrotation Zrotation
				JOINT LeftToeBase
				{
					OFFSET 5.346399 -15.068900 20.645000
					CHANNELS 3 Xrotation Yrotation Zrotation
					JOINT LeftToe_End
					{
						OFFSET 2.754700 0.931300 11.300900
						CHANNELS 3 Xrotation Yrotation Zrotation
						End Site
						{
							OFFSET 0.000000 0.000000 0.000000
						}
					}
				}
			}
		}
	}
	JOINT RightUpLeg
	{
		OFFSET -15.569500 -6.655098 0.678600
		CHANNELS 3 Xrotation Yrotation Zrotation
		JOINT RightLeg
		{
			OFFSET -4.081825 -39.591045 13.023800
			CHANNELS 3 Xrotation Yrotation Zrotation
			JOINT RightFoot
			{
				OFFSET 4.081824 -37.707954 -15.979600
				CHANNELS 3 Xrotation Yrotation Zrotation
				JOINT RightToeBase
				{
					OFFSET -5.346400 -15.068900 20.645000
					CHANNELS 3 Xrotation Yrotation Zrotation
					JOINT RightToe_End
					{
						OFFSET -2.754700 0.931300 11.300900
						CHANNELS 3 Xrotation Yrotation Zrotation
						End Site
						{
							OFFSET 0.000000 0.000000 0.000000
						}
					}
				}
			}
		}
	}
}
MOTION
Frames: 4
Frame Time: 0.016667
0.664966 113.792892 4.697617 -89.651123 0.362421 0.607513 1.068171 -1.183040 1.059483 -0.317534 -2.434543 0.230484 0.000000 0.000000 0.000000 -0.303405 -2.418347 0.331943 -10.007524 0.102136 -1.808071 8.692141 -2.170251 1.510696 0.000000 -0.000000 0.000000 0.422243 -0.103000 -4.005443 0.000000 0.000000 0.000000 35.263662 -28.378555 -54.538408 0.000389 -80.454192 0.000400 -13.958269 -3.109601 -10.085412 6.590534 -4.958676 16.122655 7.178856 21.567316 2.147313 -3.980802 36.507518 21.976007 0.000001 -0.000002 -0.000000 0.659519 4.932348 -26.024464 0.169793 1.401620 -13.813547 0.169795 1.401617 -13.813550 -0.000002 -0.000002 0.000000 1.376912 6.461951 -24.994174 0.169881 1.401963 -13.817113 0.169801 1.401626 -13.813562 -0.000002 -0.000002 0.000000 2.098719 8.644293 -21.209675 0.169791 1.401617 -13.813547 0.169799 1.401622 -13.813542 -0.000002 0.000000 0.000001 2.123423 10.735860 -14.817568 0.167493 1.392251 -13.719337 0.169813 1.401715 -13.814462 -0.000002 -0.000003 -0.000002 0.646683 1.792566 13.881980 0.000000 0.000000 0.000000 39.542926 30.913341 33.651659 0.000151 101.347802 -0.000114 -34.905337 -9.303368 11.136932 -13.111101 7.817345 -0.096470 7.918267 -27.751658 -3.100761 -2.785633 -37.960723 -21.297256 0.000001 -0.000001 -0.000001 2.082844 12.897799 37.347440 0.497047 -2.095304 26.687146 0.497043 -2.095305 26.687137 0.000002 0.000001 -0.000000 -4.321316 1.650215 38.533479 0.529964 -2.159508 27.573979 0.497635 -2.096484 26.703340 -0.000003 -0.000002 -0.000000 -1.394401 -1.262396 31.742006 0.254160 -1.518991 18.997010 0.249597 -1.505614 18.823347 0.000003 -0.000001 0.000002 0.189704 -3.422247 14.147210 0.162212 -1.219720 15.150966 0.162224 -1.219713 15.150963 -0.000003 0.000000 -0.000001 -5.328142 17.234586 20.137829 4.692256 6.913861 0.057869 29.755490 29.632776 -31.883238 -4.397746 0.000006 -0.000017 0.000001 -0.000001 0.000000 -6.050163 -16.577168 -14.296818 6.374221 -6.121233 -6.754969 38.577947 -30.102215 32.546258 -9.125955 0.000003 -0.000006 0.000000 0.000001 0.000001 
0.653104 113.784966 4.747459 -89.671996 0.456191 0.739529 1.046496 -1.143857 1.060247 -0.418975 -2.373052 0.195801 0.000000 0.000000 0.000000 -0.397363 -2.369104 0.309557 -9.992527 0.068523 -1.711925 8.739679 -2.317845 1.567080 -0.000000 -0.000000 -0.000000 0.461626 -0.727168 -4.005712 0.000000 0.000000 0.000000 35.651655 -28.307468 -54.248323 0.000264 -80.590071 0.000254 -14.391680 -3.136428 -9.670759 6.590534 -4.958674 16.122656 7.178854 21.567318 2.147311 -3.980809 36.507522 21.976007 0.000002 -0.000002 0.000000 0.659518 4.932353 -26.024464 0.169790 1.401616 -13.813547 0.169795 1.401622 -13.813550 0.000002 0.000002 0.000001 1.376911 6.461953 -24.994171 0.169883 1.401963 -13.817115 0.169798 1.401629 -13.813565 -0.000003 -0.000002 -0.000001 2.098719 8.644297 -21.209679 0.169791 1.401616 -13.813548 0.169798 1.401622 -13.813540 -0.000001 0.000000 0.000001 2.123425 10.735863 -14.817566 0.167493 1.392250 -13.719337 0.169813 1.401712 -13.814461 -0.000001 0.000000 -0.000002 0.607869 1.777501 13.847699 0.000000 0.000000 0.000000 37.902595 30.020037 36.590058 -0.000325 101.247173 0.000301 -36.596864 -9.378181 11.050566 -12.879228 8.193454 0.480522 7.914331 -27.716988 -3.098592 -2.799448 -37.469598 -21.193763 -0.000001 -0.000001 0.000000 2.149267 12.733860 36.856858 0.492752 -2.086755 26.569572 0.467268 -2.035034 25.860925 -0.000002 -0.000000 -0.000002 -4.264408 1.622381 38.347342 0.526214 -2.152305 27.474100 0.488443 -2.078137 26.451117 -0.000000 0.000003 -0.000000 -1.380219 -1.295202 31.813341 0.261206 -1.539248 19.260469 0.249817 -1.506324 18.832524 -0.000001 -0.000001 0.000001 0.197458 -3.452540 14.531514 0.170503 -1.249872 15.534982 0.170489 -1.249869 15.534982 0.000001 0.000000 0.000000 -5.342991 17.048290 19.978594 4.825496 6.808112 0.119709 29.757645 29.625034 -31.822172 -4.907032 0.000016 0.000011 0.000001 0.000002 -0.000000 -6.088023 -16.705466 -14.542673 6.487960 -5.815592 -6.492394 38.911663 -30.115472 32.490752 -9.012610 0.000001 -0.000025 -0.000000 -0.000001 0.000001 
0.692841 113.778152 4.756157 -89.708053 0.557267 0.848116 1.025456 -1.106489 1.081323 -0.521698 -2.314062 0.161337 0.000000 0.000000 0.000000 -0.492033 -2.319869 0.287191 -9.946364 0.033122 -1.614218 8.871002 -2.467347 1.625962 -0.000000 0.000000 0.000000 0.507658 -1.375826 -4.005944 0.000000 0.000000 0.000000 35.944506 -28.114973 -54.137090 0.000061 -80.729264 0.000056 -14.694916 -3.140319 -9.355477 6.590536 -4.958675 16.122655 7.178857 21.567316 2.147305 -3.980805 36.507518 21.976007 0.000001 -0.000001 -0.000003 0.659522 4.932352 -26.024465 0.169793 1.401617 -13.813546 0.169798 1.401618 -13.813548 0.000000 0.000001 0.000001 1.376915 6.461951 -24.994176 0.169877 1.401968 -13.817115 0.169801 1.401624 -13.813564 -0.000003 0.000002 0.000001 2.098722 8.644298 -21.209677 0.169788 1.401617 -13.813547 0.169800 1.401621 -13.813542 -0.000001 -0.000002 0.000001 2.123424 10.735861 -14.817566 0.167496 1.392250 -13.719337 0.169822 1.401711 -13.814464 0.000002 -0.000002 -0.000002 0.569202 1.762516 13.812978 0.000000 0.000000 0.000000 35.720701 29.082105 39.718585 0.000385 100.780124 -0.000388 -38.395799 -9.656054 11.081968 -12.219779 9.247316 2.040351 7.903585 -27.622894 -3.092641 -2.842003 -36.136711 -20.915404 0.000001 0.000001 -0.000001 2.313688 12.270299 35.528131 0.481196 -2.063504 26.250427 0.390880 -1.869343 23.618634 0.000001 0.000001 -0.000002 -4.110305 1.543902 37.842335 0.516064 -2.132715 27.202980 0.463932 -2.028125 25.766576 -0.000002 -0.000001 0.000001 -1.341788 -1.387161 32.035838 0.281866 -1.597178 20.016008 0.251144 -1.510179 18.882586 0.000000 0.000002 0.000002 0.220591 -3.538235 15.622319 0.195083 -1.335142 16.624931 0.195082 -1.335139 16.624928 -0.000004 0.000000 -0.000002 -5.321989 16.855747 19.795063 4.956635 6.715858 0.205167 29.789255 29.588373 -31.730371 -5.419499 -0.000003 -0.000000 -0.000000 0.000003 -0.000000 -6.132148 -16.831968 -14.830610 6.511082 -5.536691 -6.195143 39.677201 -30.150685 32.481975 -8.902602 -0.000001 -0.000005 -0.000000 -0.000000 -0.000001 
0.743172 113.771111 4.761703 -89.747852 0.660349 0.950952 1.004524 -1.069448 1.104948 -0.624389 -2.255073 0.126877 0.000000 0.000000 0.000000 -0.586715 -2.270638 0.264827 -9.868836 -0.003010 -1.517638 9.081822 -2.617591 1.685803 -0.000000 0.000000 -0.000000 0.565012 -2.038754 -3.968432 0.000000 0.000000 0.000000 36.227836 -27.974501 -54.031222 0.000255 -80.847829 0.000277 -15.031143 -3.167383 -9.004455 6.590535 -4.958672 16.122650 7.178856 21.567320 2.147307 -3.980803 36.507518 21.976006 0.000000 -0.000002 -0.000002 0.659520 4.932351 -26.024464 0.169793 1.401619 -13.813545 0.169794 1.401619 -13.813550 0.000002 0.000001 0.000001 1.376912 6.461951 -24.994171 0.169881 1.401965 -13.817116 0.169797 1.401621 -13.813562 0.000000 0.000001 0.000001 2.098722 8.644293 -21.209679 0.169790 1.401612 -13.813546 0.169795 1.401622 -13.813540 0.000001 -0.000000 0.000001 2.123427 10.735860 -14.817564 0.167500 1.392251 -13.719336 0.169822 1.401714 -13.814461 0.000000 -0.000003 -0.000001 0.532910 1.739980 13.779528 0.000000 0.000000 0.000000 33.134586 28.142900 42.894517 0.000416 99.988457 -0.000409 -40.318747 -10.120802 11.119182 -11.190750 10.888571 4.309746 7.887765 -27.484212 -3.083835 -2.917738 -34.172789 -20.511232 0.000002 -0.000001 -0.000001 2.511581 11.547078 33.578132 0.464406 -2.029113 25.780156 0.290258 -1.620017 20.314963 0.000001 -0.000002 0.000001 -3.884891 1.421014 37.098705 0.501312 -2.103765 26.803500 0.428882 -1.953896 24.757844 -0.000002 0.000002 -0.000001 -1.284672 -1.528354 32.422252 0.316134 -1.688251 21.211443 0.254443 -1.519773 19.007257 -0.000002 0.000001 -0.000000 0.259994 -3.671161 17.326559 0.236721 -1.467369 18.327710 0.236736 -1.467363 18.327703 0.000001 0.000000 -0.000000 -5.302522 16.657325 19.612352 5.104744 6.619999 0.290798 29.819872 29.550745 -31.588320 -5.936470 -0.000002 0.000001 -0.000000 -0.000000 0.000000 -6.186719 -16.955222 -15.131225 6.511189 -5.283317 -5.891605 40.522829 -30.189224 32.485800 -8.794734 -0.000023 0.000036 0.000000 -0.000000 0.000000 
